<?xml version="1.0" encoding="UTF-8"?>
<svg width="10px" height="14px" viewBox="0 0 10 14" version="1.1" xmlns="http://www.w3.org/2000/svg" xmlns:xlink="http://www.w3.org/1999/xlink">
    <!-- Generator: Sketch 50 (54983) - http://www.bohemiancoding.com/sketch -->
    <title>Shape Copy 8</title>
    <desc>Created with Sketch.</desc>
    <defs></defs>
    <g id="Alta-Aclaraciones" stroke="none" stroke-width="1" fill="none" fill-rule="evenodd">
        <g id="18_AclaracionesWebView-CargoDuplicado-Resumen-Copy" transform="translate(-31.000000, -313.000000)" fill="#E29C3B">
            <g id="Group-2" transform="translate(21.000000, 305.000000)">
                <path d="M14.4282811,8.1512362 C14.4659041,8.1301891 14.5025706,8.10722862 14.5427444,8.09064605 C14.5819617,8.07470128 14.6230919,8.06545331 14.6632657,8.05333528 C14.6973815,8.04344952 14.7305408,8.0300559 14.7656132,8.02272131 C14.9202503,7.99242623 15.0793512,7.99242623 15.2343071,8.02272131 C15.2693795,8.02973701 15.3022199,8.04313062 15.3363357,8.05333528 C15.3768283,8.06545331 15.4176398,8.07470128 15.4574947,8.09064605 C15.4970308,8.10754752 15.5336973,8.1301891 15.5716392,8.1512362 C15.6025667,8.16718098 15.6338129,8.18121238 15.6631461,8.20066501 C15.7288271,8.24467259 15.7900442,8.29473919 15.84616,8.3508648 L19.6495955,12.1543317 C19.8829859,12.3877633 20,12.693903 20,13.0000427 C20,13.3058635 19.8833048,13.6123221 19.6495955,13.8454347 C19.1828146,14.3126167 18.4255709,14.3126167 17.9584712,13.8454347 L16.195608,12.0819425 L16.195608,19.9583431 C16.195608,20.6187757 15.6605954,21.1542013 14.9999601,21.1542013 C14.3396437,21.1542013 13.8043123,20.6187757 13.8043123,19.9583431 L13.8043123,12.0822614 L12.0411303,13.8457536 C11.5743494,14.3129356 10.8171057,14.3129356 10.3503248,13.8457536 C9.88322506,13.3795284 9.88322506,12.6215137 10.3503248,12.1543317 L14.1537603,8.3508648 C14.2095572,8.29473919 14.2710932,8.24467259 14.337093,8.20066501 C14.3664262,8.18121238 14.3976725,8.16749988 14.4282811,8.1512362 Z" id="Shape-Copy-8" transform="translate(15.000000, 14.577101) scale(1, -1) translate(-15.000000, -14.577101) "></path>
            </g>
        </g>
    </g>
</svg>