<?xml version="1.0" encoding="UTF-8"?>
<svg width="160px" height="160px" viewBox="0 0 160 160" version="1.1" xmlns="http://www.w3.org/2000/svg" xmlns:xlink="http://www.w3.org/1999/xlink">
    <!-- Generator: Sketch 63.1 (92452) - https://sketch.com -->
    <title>02. Elements / Empty State / Light / 012 Color</title>
    <desc>Created with Sketch.</desc>
    <g id="02.-Elements-/-Empty-State-/-Light-/-012-Color" stroke="none" stroke-width="1" fill="none" fill-rule="evenodd">
        <g id="Vector" transform="translate(26.000000, 22.000000)">
            <path d="M57.3187,114.2807 C92.3877,109.0717 97.7727,101.2897 102.8597,92.7237 C112.7097,76.1357 104.1747,46.3737 83.9557,46.5387 C64.2317,50.6637 68.2957,17.1427 30.3827,28.0137 C6.6297,34.8247 -3.9763,54.1557 1.3477,72.7237 C6.6727,91.2917 22.2507,119.4897 57.3187,114.2807" id="Fill-1" fill="#E5E5E5"></path>
            <path d="M46.2054,0.9994 C45.6564,0.9994 45.2134,1.4424 45.2134,1.9904 L45.2134,7.9554 C45.2134,8.5024 45.6564,8.9464 46.2054,8.9464 C46.7534,8.9464 47.1974,8.5024 47.1974,7.9554 L47.1974,1.9904 C47.1974,1.4424 46.7534,0.9994 46.2054,0.9994" id="Fill-4" fill="#EC0000"></path>
            <path d="M39.6742,13.5478 L33.7182,13.5478 C33.1702,13.5478 32.7252,13.9908 32.7252,14.5378 C32.7252,15.0858 33.1702,15.5288 33.7182,15.5288 L39.6742,15.5288 C40.2232,15.5288 40.6662,15.0858 40.6662,14.5378 C40.6662,13.9908 40.2232,13.5478 39.6742,13.5478" id="Fill-7" fill="#EC0000"></path>
            <path d="M37.3324,4.518 C36.9434,4.131 36.3164,4.13 35.9304,4.518 C35.5434,4.905 35.5444,5.533 35.9324,5.92 L41.2444,11.068 C41.6334,11.455 42.2604,11.455 42.6464,11.068 C43.0334,10.681 43.0324,10.053 42.6444,9.665 L37.3324,4.518 Z" id="Fill-9" fill="#EC0000"></path>
            <polygon id="Fill-11" fill="#6EE3FF" points="90.558 23.0649 89.493 24.1309 88.032 22.6689 86.57 24.1309 85.504 23.0649 86.966 21.6039 85.504 20.1429 86.57 19.0769 88.032 20.5379 89.493 19.0759 90.559 20.1419 89.097 21.6039"></polygon>
            <path d="M17.7113,68.7831 C15.7773,68.7831 14.2113,67.2161 14.2113,65.2831 C14.2113,63.3501 15.7773,61.7831 17.7113,61.7831 C19.6453,61.7831 21.2113,63.3501 21.2113,65.2831 C21.2113,67.2161 19.6453,68.7831 17.7113,68.7831 M17.7113,66.7831 C18.5393,66.7831 19.2113,66.1121 19.2113,65.2831 C19.2113,64.4541 18.5393,63.7831 17.7113,63.7831 C16.8833,63.7831 16.2113,64.4541 16.2113,65.2831 C16.2113,66.1121 16.8833,66.7831 17.7113,66.7831" id="Fill-13" fill="#0D4F80"></path>
            <polygon id="Fill-15" fill="#FFFFFF" points="90.558 71.0654 89.493 72.1304 88.032 70.6694 86.57 72.1314 85.504 71.0654 86.966 69.6034 85.504 68.1424 86.57 67.0764 88.032 68.5384 89.493 67.0764 90.559 68.1424 89.097 69.6044"></polygon>
            <path d="M67.4867,90.5815 C67.3997,90.5455 67.3267,90.4885 67.2567,90.4285 C67.2407,90.4155 67.2217,90.4105 67.2087,90.3965 C67.0467,90.2405 66.9467,90.0235 66.9377,89.7835 L62.2267,89.7835 C62.2267,89.7845 62.2257,89.7855 62.2247,89.7875 C62.2157,90.0265 62.1177,90.2415 61.9557,90.3965 C61.9417,90.4105 61.9227,90.4165 61.9067,90.4295 C61.8367,90.4895 61.7637,90.5455 61.6767,90.5815 C61.5717,90.6255 61.4557,90.6515 61.3327,90.6515 L21.1697,90.6515 L21.1697,94.7835 L84.3697,94.7835 L84.3697,90.6515 L67.8317,90.6515 C67.7097,90.6515 67.5917,90.6255 67.4867,90.5815" id="Fill-17" fill="#FFFFFF"></path>
            <polygon id="Fill-19" fill="#EC0000" points="21.169 97.851 84.369 97.851 84.369 94.783 21.169 94.783"></polygon>
            <polygon id="Fill-21" fill="#EC0000" points="62.6068 57.537 40.3808 57.537 38.2538 66.901 64.8198 66.901"></polygon>
            <polygon id="Fill-22" fill="#EC0000" points="60.6429 49.2299 53.4009 18.5859 49.2249 18.5859 42.2669 49.2299"></polygon>
            <path d="M66.9378,89.7831 C66.9378,89.7721 66.9308,89.7621 66.9308,89.7511 C66.9308,89.2541 67.3338,88.8511 67.8318,88.8511 L70.0068,88.8511 L66.7828,75.2061 L36.3688,75.2061 L33.2698,88.8511 L61.3328,88.8511 C61.8308,88.8511 62.2328,89.2541 62.2328,89.7511 C62.2328,89.7621 62.2268,89.7721 62.2268,89.7831 L66.9378,89.7831 Z" id="Fill-23" fill="#EC0000"></path>
            <polygon id="Fill-24" fill="#FFFFFF" points="69.6468 73.3862 69.6468 73.3862 68.1748 66.9012 67.1038 62.1832 66.0488 57.5372 64.1638 49.2302 57.2078 18.5862 53.4008 18.5862 60.6428 49.2302 42.2668 49.2302 40.3808 57.5372 62.6068 57.5372 64.8198 66.9012 38.2538 66.9012 36.3688 75.2062 66.7828 75.2062 70.0068 88.8512 73.1578 88.8512"></polygon>
            <path d="M84.3695,94.7831 L84.3695,97.8511 L21.1695,97.8511 L21.1695,94.7831 L21.1695,90.6511 L61.3325,90.6511 C61.4555,90.6511 61.5715,90.6261 61.6775,90.5811 C61.7635,90.5451 61.8375,90.4901 61.9065,90.4291 C61.9225,90.4171 61.9415,90.4101 61.9555,90.3961 C62.1145,90.2411 62.2155,90.0251 62.2245,89.7871 C62.2255,89.7851 62.2265,89.7841 62.2265,89.7831 C62.2265,89.7721 62.2325,89.7621 62.2325,89.7511 C62.2325,89.2541 61.8305,88.8511 61.3325,88.8511 L33.2695,88.8511 L36.3685,75.2061 L38.2545,66.9011 L40.3815,57.5371 L42.2665,49.2301 L49.2245,18.5861 L53.4005,18.5861 L57.2075,18.5861 L64.1635,49.2301 L66.0495,57.5371 L67.1035,62.1831 L68.1755,66.9011 L69.6465,73.3861 L73.1575,88.8511 L70.0075,88.8511 L67.8315,88.8511 C67.3345,88.8511 66.9315,89.2541 66.9315,89.7511 C66.9315,89.7621 66.9375,89.7721 66.9375,89.7831 C66.9465,90.0231 67.0485,90.2401 67.2085,90.3961 C67.2225,90.4101 67.2405,90.4161 67.2565,90.4291 C67.3255,90.4891 67.4005,90.5451 67.4865,90.5811 C67.5925,90.6261 67.7095,90.6511 67.8315,90.6511 L84.3695,90.6511 L84.3695,94.7831 Z M75.0035,88.8511 L58.6445,16.7851 L47.7875,16.7851 L31.4245,88.8511 L19.3695,88.8511 L19.3695,99.6511 L86.1695,99.6511 L86.1695,88.8511 L75.0035,88.8511 Z" id="Fill-25" fill="#0F2B4A"></path>
        </g>
    </g>
</svg>
