<svg width="24" height="24" viewBox="0 0 24 24" fill="none" xmlns="http://www.w3.org/2000/svg">
<g id="&#240;&#159;&#146;&#160; Icon">
<path id="&#240;&#159;&#140;&#136; Color" fill-rule="evenodd" clip-rule="evenodd" d="M12 21C17.5228 21 22 18.703 22 15.8695C22 13.8327 19.6865 12.0731 16.3342 11.2447C16.3044 10.5961 16.1125 9.95258 15.7575 9.37096L12.6262 4.24043C12.3875 3.84918 12.2225 3.4299 12.1309 3L12 3.21436C11.225 4.4842 11.225 6.04872 11.9999 7.31863L14.505 11.4231C15.2801 12.693 15.2801 14.2576 14.505 15.5275L14.3741 15.7419C14.2825 15.312 14.1175 14.8927 13.8788 14.5015L11.5854 10.7439L10.1212 8.34476C9.88246 7.95351 9.71749 7.53423 9.62587 7.10433L9.49498 7.31876C8.72258 8.58434 8.72015 10.1426 9.48736 11.4101L9.48715 11.4103L12 15.5275C12.775 16.7974 12.775 18.3619 12 19.6319L11.8692 19.8462C11.7775 19.4164 11.6126 18.9971 11.3738 18.6058L8.2425 13.4753C7.82254 12.7872 7.63064 12.0126 7.66582 11.2452C4.31367 12.0737 2 13.8328 2 15.8695C2 18.703 6.47719 21 12 21Z" fill="#EC0000"/>
</g>
</svg>
