<svg width="121" height="114" viewBox="0 0 121 114" fill="none" xmlns="http://www.w3.org/2000/svg">
<g id="Group 58">
<path id="Vector" fill-rule="evenodd" clip-rule="evenodd" d="M63.5705 113.151C102.101 107.391 109.62 97.394 115.563 86.5837C127.073 65.6471 118.029 30.2753 95.15 30.0897C72.7483 34.9578 76.8919 -10.733 33.7648 2.37217C6.74209 10.5831 -2.36232 36.1201 1.17182 59.1219C4.70595 82.1249 23.7834 119.099 63.5705 113.151Z" fill="#E5E5E5"/>
<g id="Group 57">
<g id="Group 56">
<g id="Group 55">
<path id="Vector 15" d="M88.644 92.7476H31.6129L35.706 78.8309L39.5263 70.0989L46.0753 62.4584L47.9854 58.6381L47.1668 53.4534L38.1619 41.7198L31.6129 21.5269H88.644L85.3695 33.2606L80.4577 44.7214L73.6358 53.4534V60.2753L82.3678 72.5548L88.644 92.7476Z" fill="white" stroke="black"/>
<g id="Vector 13">
<path d="M74.5426 32.7025L61.6978 46.9746L53.5165 43.5908L48.8529 36.9842L64.5522 31.2753L74.5426 32.7025Z" fill="#0D4F80"/>
<path d="M48.8529 92.6452L60.2706 82.6548L71.6882 92.6452H48.8529Z" fill="#0D4F80"/>
<path d="M74.5426 32.7025L61.6978 46.9746L53.5165 43.5908L48.8529 36.9842L64.5522 31.2753L74.5426 32.7025Z" stroke="#0D4F80" stroke-width="3"/>
<path d="M48.8529 92.6452L60.2706 82.6548L71.6882 92.6452H48.8529Z" stroke="#0D4F80" stroke-width="3"/>
</g>
<g id="Vector 14">
<path d="M94.5243 9.86816H24.5912L26.0184 19.8586L55.9897 21.2858L95.9515 18.4314L94.5243 9.86816Z" fill="#C4C4C4"/>
<path d="M91.6699 94.0733H27.4456L24.5912 104.064H95.9515L91.6699 94.0733Z" fill="#C4C4C4"/>
</g>
</g>
<g id="Group 54">
<path id="Vector_2" d="M73.5653 91.0545L73.5653 91.0545C70.169 87.5455 66.2198 84.6373 61.8804 82.4498C61.8804 82.4498 61.8803 82.4498 61.8803 82.4498L61.6104 82.3127V73.6946C61.6104 73.3355 61.4701 72.9905 61.2193 72.7357C60.9683 72.4807 60.6273 72.3369 60.271 72.3369C59.9148 72.3369 59.5737 72.4807 59.3228 72.7357C59.072 72.9905 58.9316 73.3355 58.9316 73.6946V82.3309C54.343 84.7908 50.2249 88.0659 46.7727 92.0013C46.7727 92.0013 46.7726 92.0013 46.7726 92.0014L45.0788 93.9308L44.7874 94.2628H45.2291H76.1979H76.6698L76.3417 93.9237L73.5653 91.0545ZM60.6877 84.8811L60.688 84.8812C64.1606 86.6327 67.3698 88.8767 70.2195 91.5454H50.9123C53.698 88.8154 56.8524 86.502 60.2809 84.6751L60.6877 84.8811Z" fill="#0D4F80" stroke="#0D4F80" stroke-width="0.4"/>
<path id="Vector_3" d="M59.466 63.8118C59.7169 64.0667 60.0579 64.2106 60.4142 64.2106C60.7705 64.2106 61.1115 64.0667 61.3624 63.8118C61.6132 63.5569 61.7536 63.2119 61.7536 62.8528V59.0478C61.7536 58.6887 61.6132 58.3437 61.3624 58.0889C61.1115 57.8339 60.7705 57.6901 60.4142 57.6901C60.0579 57.6901 59.7169 57.8339 59.466 58.0889C59.2151 58.3437 59.0748 58.6887 59.0748 59.0478V62.8528C59.0748 63.2119 59.2151 63.5569 59.466 63.8118Z" fill="#0D4F80" stroke="#0D4F80" stroke-width="0.4"/>
<path id="Vector_4" d="M60.4136 49.1931L60.412 49.1931C60.0744 49.1932 59.7428 49.1041 59.4498 48.9347L59.4494 48.9346L57.7404 47.9428C52.984 45.1849 48.8 41.515 45.4206 37.1369L60.4136 49.1931ZM60.4136 49.1931C60.7562 49.1903 61.0917 49.0953 61.386 48.9179C61.3863 48.9178 61.3866 48.9176 61.3869 48.9174L61.9739 48.5711L61.9741 48.571C67.9188 45.0574 72.9392 40.1357 76.6075 34.2257L76.6082 34.2246L76.9381 33.6852C76.9382 33.685 76.9383 33.6849 76.9384 33.6847C77.097 33.4282 77.1949 33.1381 77.2246 32.837C77.2543 32.5358 77.215 32.2317 77.1097 31.9483C77.0043 31.665 76.8357 31.41 76.6168 31.2035C76.3978 30.997 76.1346 30.8446 75.8475 30.7584L75.8467 30.7582L72.0376 29.6333L71.9807 29.8251L72.0373 29.6333L72.0373 29.6333C68.3569 28.5409 64.4039 28.9283 60.997 30.715L58.6864 31.9226C56.3203 33.1558 53.6852 33.7587 51.0277 33.6753L47.207 33.5537L47.2069 33.5537M60.4136 49.1931L47.2069 33.5537M47.2069 33.5537C46.7909 33.5407 46.38 33.6485 46.0226 33.8643C45.6652 34.08 45.3763 34.3945 45.1892 34.7706C45.0022 35.1466 44.9248 35.5688 44.9657 35.9877C45.0066 36.4065 45.1643 36.8052 45.4206 37.1367L47.2069 33.5537ZM74.1529 33.0796C70.7317 38.488 66.095 42.9947 60.6235 46.2276L60.6218 46.2287L60.4042 46.3603L59.071 45.5863L59.071 45.5862C54.9245 43.1809 51.2406 40.0349 48.1959 36.3004L50.9352 36.3886L50.9353 36.3886C54.0511 36.4869 57.1402 35.7786 59.9121 34.3303C59.9121 34.3303 59.9121 34.3303 59.9121 34.3303L62.225 33.1224L62.2253 33.1223C65.0224 31.6563 68.2666 31.3384 71.2877 32.2339L71.2879 32.2339L74.1529 33.0796Z" fill="#0D4F80" stroke="#0D4F80" stroke-width="0.4"/>
<path id="Vector_5" d="M79.2137 48.7941L79.2136 48.7942L75.4751 53.1292C75.475 53.1293 75.4749 53.1294 75.4748 53.1296C74.5684 54.1906 74.0689 55.5488 74.0689 56.9548C74.0689 58.3608 74.5684 59.7191 75.4748 60.7801L79.2137 48.7941ZM79.2137 48.7941C81.8116 45.7796 83.765 42.25 84.9502 38.4287M79.2137 48.7941L84.9502 38.4287M84.9502 38.4287L89.9646 22.3572C91.9792 22.2814 93.8906 21.4255 95.3052 19.9628C96.7536 18.4652 97.5658 16.4511 97.5685 14.3528V14.3525V8.82883C97.5685 8.49746 97.2999 8.22883 96.9685 8.22883H23.5613C23.23 8.22883 22.9613 8.49746 22.9613 8.82883L22.9613 14.3525L22.9613 14.3528C22.964 16.4511 23.7763 18.4652 25.2246 19.9628C26.6392 21.4255 28.5507 22.2814 30.5653 22.3572L35.5797 38.4287C36.7647 42.25 38.7181 45.7797 41.3162 48.7942L45.051 53.133C45.051 53.1331 45.0511 53.1332 45.0511 53.1332C45.9576 54.1942 46.4571 55.5526 46.4571 56.9587C46.4571 58.3647 45.9576 59.723 45.0512 60.784L84.9502 38.4287ZM25.6401 10.9481L25.6401 14.3562L25.6401 14.3564M25.6401 10.9481L27.0264 18.2418C26.0121 17.2112 25.4416 15.8139 25.4401 14.3564H25.6401M25.6401 10.9481H94.8973V14.3562C94.8958 15.763 94.3447 17.111 93.3659 18.1042C92.3872 19.0972 91.0612 19.6541 89.6795 19.6536H30.8506M25.6401 10.9481L30.8506 19.6536M25.6401 14.3564C25.6416 15.7618 26.1918 17.1087 27.169 18.1015C28.1461 19.0943 29.4702 19.6522 30.8506 19.6536M25.6401 14.3564L30.8506 19.6536M94.8973 102.967V99.5592C94.8958 98.1522 94.3447 96.804 93.366 95.8105C92.3873 94.8172 91.0613 94.2598 89.6795 94.2598H30.8507C29.4701 94.2618 28.1459 94.8201 27.1689 95.8132C26.1918 96.8063 25.6416 98.1534 25.6401 99.559C25.6401 99.5591 25.6401 99.5592 25.6401 99.5592M94.8973 102.967L25.4401 99.559L25.6401 99.5592M94.8973 102.967H25.6401M94.8973 102.967H25.6401M25.6401 99.5592L25.6401 102.967M25.6401 99.5592L25.6401 102.967M79.2366 65.1638L75.4751 60.7804L35.5778 75.4923L30.5615 91.5524C28.5461 91.6277 26.6337 92.4836 25.2183 93.9467C23.7691 95.4447 22.9565 97.4596 22.9537 99.5588V99.559V105.083C22.9537 105.414 23.2224 105.683 23.5537 105.683H96.9761C97.3075 105.683 97.5761 105.414 97.5761 105.083V99.559V99.5588C97.5734 97.4593 96.7604 95.4441 95.3109 93.946C93.8951 92.4829 91.9822 91.6272 89.9664 91.5523L84.952 75.4923C83.7682 71.6861 81.8223 68.1696 79.2366 65.1638ZM45.051 60.7843L41.2933 65.1638C38.7076 68.1696 36.7617 71.686 35.5779 75.4921L45.051 60.7843ZM73.4523 62.5626L73.4527 62.5631L77.2146 66.945L77.2147 66.9452C79.5597 69.6704 81.3244 72.8593 82.3976 76.3115L82.3977 76.3117L87.1173 91.4267H33.4182L38.1379 76.3117L38.1379 76.3116C39.2127 72.86 40.9773 69.6714 43.3209 66.9451L43.3209 66.945L47.0829 62.5631L47.0832 62.5627C48.4123 61.0063 49.1437 59.0154 49.1437 56.9558C49.1437 54.8962 48.4123 52.9053 47.0832 51.3489L47.0827 51.3483L43.3493 47.0088L43.3491 47.0086C40.9908 44.2762 39.2169 41.0757 38.1398 37.6097L38.1398 37.6095L33.384 22.3691H87.161L82.4034 37.6095L82.4033 37.6097C81.3268 41.0755 79.5535 44.2761 77.1959 47.0086L77.1959 47.0087L73.4605 51.3424L73.4601 51.343C72.1287 52.899 71.3952 54.8905 71.3937 56.9513C71.3923 59.0121 72.123 61.0047 73.4523 62.5626Z" fill="#0F2B4A" stroke="#0F2B4A" stroke-width="0.4"/>
</g>
</g>
<path id="Vector_6" d="M93.5558 46.9044C93.5558 44.6438 91.6011 42.8112 89.1898 42.8112C86.7785 42.8112 84.8238 44.6438 84.8238 46.9044C84.8238 49.1649 86.7785 50.9975 89.1898 50.9975C91.6011 50.9975 93.5558 49.1649 93.5558 46.9044Z" fill="white" stroke="#E10714" stroke-width="1.46624"/>
<path id="Vector_7" d="M33.5231 74.192C33.5231 70.7258 30.8354 67.9158 27.5198 67.9158C24.2043 67.9158 21.5166 70.7258 21.5166 74.192C21.5166 77.6582 24.2043 80.4681 27.5198 80.4681C30.8354 80.4681 33.5231 77.6582 33.5231 74.192Z" fill="white" stroke="#990000" stroke-width="1.46624"/>
</g>
</g>
</svg>
